#tb 0: 1/25
0,          0,          0,        1,    38016, 0xde1a2194
0,          1,          1,        1,    38016, 0x8b6cf842
0,          2,          2,        1,    38016, 0x6dc7c88b
0,          3,          3,        1,    38016, 0xdaefa55d
0,          4,          4,        1,    38016, 0x61b77631
0,          5,          5,        1,    38016, 0xfd096789
0,          6,          6,        1,    38016, 0x69204c43
0,          7,          7,        1,    38016, 0x2c8e40c0
0,          8,          8,        1,    38016, 0xa4f33298
0,          9,          9,        1,    38016, 0x67193923
0,         10,         10,        1,    38016, 0x0b634893
0,         11,         11,        1,    38016, 0x7ced69e1
0,         12,         12,        1,    38016, 0xc20179dc
0,         13,         13,        1,    38016, 0x9d4d94b9
0,         14,         14,        1,    38016, 0xf4158e1a
0,         15,         15,        1,    38016, 0xf24b986a
0,         16,         16,        1,    38016, 0x3fd39baf
0,         17,         17,        1,    38016, 0xc0f991b9
0,         18,         18,        1,    38016, 0xe3a98216
0,         19,         19,        1,    38016, 0x37246882
0,         20,         20,        1,    38016, 0xad5745b0
0,         21,         21,        1,    38016, 0x42831ea7
0,         22,         22,        1,    38016, 0x14530a1b
0,         23,         23,        1,    38016, 0x1a9f03a8
0,         24,         24,        1,    38016, 0x34f905f3
0,         25,         25,        1,    38016, 0x94300e93
0,         26,         26,        1,    38016, 0xcda00be5
0,         27,         27,        1,    38016, 0x607516d6
0,         28,         28,        1,    38016, 0xabb02c3b
0,         29,         29,        1,    38016, 0xcf3746bf
